<?xml version="1.0" encoding="UTF-8" standalone="no"?>
<!-- Created with Inkscape (http://www.inkscape.org/) -->

<svg
   width="45.056683mm"
   height="13.8571mm"
   viewBox="0 0 45.056683 13.8571"
   version="1.1"
   id="svg1"
   inkscape:version="1.3.1 (9b9bdc1480, 2023-11-25, custom)"
   sodipodi:docname="refspy-logo.svg"
   xmlns:inkscape="http://www.inkscape.org/namespaces/inkscape"
   xmlns:sodipodi="http://sodipodi.sourceforge.net/DTD/sodipodi-0.dtd"
   xmlns="http://www.w3.org/2000/svg"
   xmlns:svg="http://www.w3.org/2000/svg">
  <sodipodi:namedview
     id="namedview1"
     pagecolor="#ffffff"
     bordercolor="#000000"
     borderopacity="0.25"
     inkscape:showpageshadow="2"
     inkscape:pageopacity="0.0"
     inkscape:pagecheckerboard="0"
     inkscape:deskcolor="#d1d1d1"
     inkscape:document-units="mm"
     inkscape:zoom="2.3894422"
     inkscape:cx="121.15798"
     inkscape:cy="106.51021"
     inkscape:window-width="1920"
     inkscape:window-height="1131"
     inkscape:window-x="0"
     inkscape:window-y="0"
     inkscape:window-maximized="1"
     inkscape:current-layer="layer1"
     inkscape:export-bgcolor="#ffffff00" />
  <defs
     id="defs1" />
  <g
     inkscape:label="Layer 1"
     inkscape:groupmode="layer"
     id="layer1"
     transform="translate(-45.946,-64.999978)">
    <path
       style="-inkscape-font-specification:'IBM Plex Serif Bold';fill:#29bcab;fill-opacity:0.977932;stroke-width:0.970139"
       d="m 45.946,75.865524 h 4.261552 v -0.959555 h -1.128888 v -4.134552 c 0,-0.592666 0.606777,-1.340554 1.185333,-1.340554 0.04233,0 0.07055,0 0.09878,0.01411 l 0.02822,0.08467 c -0.126999,0.05644 -0.239888,0.268111 -0.239888,0.465667 0,0.52211 0.380999,0.945443 1.086554,0.945443 0.762,0 1.185333,-0.465666 1.185333,-1.241776 0,-0.860778 -0.564444,-1.411111 -1.509888,-1.411111 -0.945444,0 -1.552221,0.606778 -1.820332,1.382888 h -0.05644 V 68.287863 L 45.946,68.908752 v 0.846666 l 0.846666,0.183444 v 4.967107 H 45.946 Z m 10.907872,0.169333 c 1.933221,0 2.892776,-1.185332 3.217331,-2.102553 l -0.818444,-0.479778 c -0.254,0.635 -0.888999,1.171221 -1.904998,1.171221 -1.086555,0 -1.806221,-0.620888 -1.806221,-1.834443 v -0.592666 h 4.698996 V 71.70275 c 0,-2.102554 -1.354665,-3.414887 -3.513664,-3.414887 -2.173109,0 -3.59833,1.453444 -3.59833,3.866442 0,2.243665 1.340554,3.880552 3.72533,3.880552 z M 55.54154,71.081861 c 0,-1.354665 0.493888,-1.792109 1.199443,-1.792109 0.705555,0 1.157111,0.451555 1.157111,1.792109 v 0.197556 H 55.54154 Z m 5.757327,4.783663 h 4.261552 v -0.959555 h -1.128888 v -5.432773 h 1.396999 v -1.015999 h -1.396999 v -1.058333 c 0,-1.128888 0.282222,-1.580443 1.015999,-1.580443 0.09878,0 0.254,0.01411 0.324556,0.02822 v 0.08467 c -0.169333,0.07055 -0.366889,0.282222 -0.366889,0.64911 0,0.493889 0.338667,0.889 0.987777,0.889 0.635,0 1.001888,-0.423333 1.001888,-1.030111 0,-0.719666 -0.620888,-1.439332 -1.989665,-1.439332 -2.06022,0 -3.259664,1.015999 -3.259664,2.793998 v 0.663222 h -0.846666 v 1.015999 h 0.846666 v 5.432773 h -0.846666 z m 8.960544,0.169333 c 1.749777,0 2.94922,-0.832554 2.94922,-2.412998 0,-1.453443 -0.846666,-2.017887 -2.483553,-2.44122 L 70.1183,71.025417 c -0.790221,-0.197555 -1.015999,-0.451555 -1.015999,-0.931333 0,-0.465666 0.352778,-0.747888 1.044222,-0.747888 1.001888,0 1.439332,0.366889 1.439332,1.086555 v 0.225777 h 1.453443 v -2.201331 h -1.453443 v 0.761999 h -0.05644 c -0.126999,-0.465666 -0.663221,-0.931333 -1.693332,-0.931333 -1.636887,0 -2.737553,0.846666 -2.737553,2.356554 0,1.298221 0.77611,2.04611 2.469443,2.469443 l 0.663221,0.169333 c 0.705555,0.183444 0.987777,0.409222 0.987777,0.860777 0,0.550333 -0.380999,0.832555 -1.298221,0.832555 -1.03011,0 -1.467554,-0.366889 -1.467554,-1.086555 v -0.225777 h -1.453444 v 2.201331 h 1.453444 v -0.761999 h 0.05644 c 0.127,0.465666 0.663222,0.931332 1.749775,0.931332 z m 3.908767,2.652887 H 78.42973 V 77.72819 h -1.128888 v -2.935109 h 0.08467 c 0.253999,0.64911 0.90311,1.241776 1.975554,1.241776 1.848554,0 2.991553,-1.566332 2.991553,-3.866441 0,-2.31422 -1.142999,-3.880553 -2.991553,-3.880553 -1.016,0 -1.721555,0.606778 -1.975554,1.27 h -0.08467 v -1.27 l -3.132664,0.635 v 0.846666 l 0.846666,0.183444 v 7.775217 h -0.846666 z m 4.317996,-3.993441 c -0.747888,0 -1.28411,-0.522111 -1.28411,-1.28411 v -2.511776 c 0,-0.761999 0.536222,-1.28411 1.28411,-1.28411 0.747889,0 1.354666,0.536222 1.354666,1.53811 v 2.003776 c 0,1.001888 -0.606777,1.53811 -1.354666,1.53811 z m 6.13829,4.162775 c 1.594554,0 2.229553,-1.241777 2.666997,-2.271888 l 3.033887,-7.168438 h 0.677333 v -0.959555 h -2.652887 v 0.959555 h 0.790222 l -1.523999,4.176885 h -0.08467 l -1.495776,-4.176885 h 0.790221 v -0.959555 h -3.936997 v 0.959555 h 0.677333 l 2.864553,6.759216 -0.141111,0.366889 c -0.380999,0.973666 -0.790221,1.552221 -1.298221,1.552221 -0.05644,0 -0.08467,0 -0.127,-0.01411 l -0.04233,-0.08467 c 0.09878,-0.141111 0.169333,-0.380999 0.169333,-0.606777 0,-0.564444 -0.395111,-1.072444 -1.086555,-1.072444 -0.705555,0 -1.142999,0.409222 -1.142999,1.100666 0,0.776111 0.691444,1.439333 1.862666,1.439333 z"
       id="text1"
       aria-label="refspy" />
  </g>
</svg>
