<?xml version="1.0" encoding="UTF-8" standalone="no"?>
<!-- Created with Inkscape (http://www.inkscape.org/) -->

<svg
   width="109.14584mm"
   height="37.899002mm"
   viewBox="0 0 109.14584 37.899002"
   version="1.1"
   id="svg1"
   inkscape:version="1.3.1 (9b9bdc1480, 2023-11-25, custom)"
   sodipodi:docname="refspy-logo.svg"
   xmlns:inkscape="http://www.inkscape.org/namespaces/inkscape"
   xmlns:sodipodi="http://sodipodi.sourceforge.net/DTD/sodipodi-0.dtd"
   xmlns="http://www.w3.org/2000/svg"
   xmlns:svg="http://www.w3.org/2000/svg">
  <sodipodi:namedview
     id="namedview1"
     pagecolor="#ffffff"
     bordercolor="#000000"
     borderopacity="0.25"
     inkscape:showpageshadow="2"
     inkscape:pageopacity="0.0"
     inkscape:pagecheckerboard="0"
     inkscape:deskcolor="#d1d1d1"
     inkscape:document-units="mm"
     inkscape:zoom="2.2459286"
     inkscape:cx="172.97968"
     inkscape:cy="145.37417"
     inkscape:window-width="1920"
     inkscape:window-height="1131"
     inkscape:window-x="0"
     inkscape:window-y="0"
     inkscape:window-maximized="1"
     inkscape:current-layer="layer1" />
  <defs
     id="defs1">
    <rect
       x="109.17146"
       y="222.19597"
       width="515.56952"
       height="340.88162"
       id="rect1" />
  </defs>
  <g
     inkscape:label="Layer 1"
     inkscape:groupmode="layer"
     id="layer1"
     transform="translate(-28.936895,-55.21342)">
    <path
       style="font-size:146.667px;line-height:0.7;font-family:'TeX Gyre Schola';-inkscape-font-specification:'TeX Gyre Schola';text-align:end;direction:rtl;text-anchor:end;white-space:pre;mix-blend-mode:darken;fill:#7f7f7f;stroke:#ffffff;stroke-width:4.93333;stroke-linejoin:round"
       d="m 172.97202,258.42206 c 0,-7.04001 -4.98668,-11.73336 -12.76003,-11.73336 -9.24002,0 -17.3067,7.48002 -22.00005,20.38672 v -18.18671 l -25.96006,1.61333 v 6.30669 h 6.01335 c 5.42668,0 6.30668,1.02666 6.30668,7.33335 v 40.92009 c 0,5.86668 -0.14667,6.89335 -9.68002,6.89335 h -2.05334 v 5.28001 h 39.16009 v -5.28001 h -2.78667 c -9.38669,0 -11.00003,-1.02667 -11.00003,-6.89335 v -7.33335 c 0,-11.00003 2.05334,-22.14672 5.72002,-30.50674 3.52,-8.21335 8.50668,-12.76003 14.6667,-13.49336 -2.05334,2.34667 -2.64001,3.81334 -2.64001,6.60001 0,4.69335 3.37334,8.06669 8.06669,8.06669 5.28001,0 8.94668,-3.96001 8.94668,-9.97336 z m 69.51992,40.18676 -5.13335,-2.78667 c -6.01335,11.29336 -12.17336,15.69337 -22.00005,15.69337 -12.17336,0 -20.38671,-8.80002 -20.38671,-27.28006 h 47.52011 c 0,-22.00006 -12.17336,-37.54676 -30.21341,-37.54676 -18.77337,0 -32.85341,16.28004 -32.85341,38.28009 0,20.53338 13.3467,34.46675 33.14675,34.46675 13.93336,0 23.90672,-6.89335 29.92007,-20.82672 z M 226.79857,272.5021 c 0,4.25334 -1.32001,5.42667 -6.01335,5.42667 h -25.66673 c 0,-15.69337 7.92002,-24.93339 16.86671,-24.93339 8.94669,0 14.81337,7.77335 14.81337,19.50672 z m 84.33324,-49.57345 c 0,-8.50669 -7.33335,-13.7867 -19.21337,-13.7867 -17.30671,0 -28.60007,10.26669 -28.60007,35.20008 v 4.54668 h -12.9067 v 6.30668 h 12.9067 v 49.86678 c 0,5.86668 -0.14667,6.89335 -9.53336,6.89335 h -2.05333 v 5.28001 h 39.16009 v -5.28001 h -2.64001 c -9.53335,0 -11.14669,-1.02667 -11.14669,-6.89335 v -49.86678 h 16.13337 v -6.30668 h -16.13337 v -8.36002 c 0,-18.48005 5.28001,-25.52006 14.96003,-25.52006 3.08001,0 4.98668,0.88 4.98668,2.49334 0,0.44 -2.2,3.96001 -2.2,6.60001 0,4.40001 3.52,7.77335 8.06668,7.77335 4.84001,0 8.21335,-3.66667 8.21335,-8.94668 z m 45.61315,73.92017 c 0,-6.45335 -2.05333,-11.44003 -6.16001,-14.81337 -3.52001,-3.08001 -6.45335,-4.25334 -15.40004,-6.16001 l -7.33335,-1.61334 c -8.06668,-1.76 -8.06668,-1.76 -10.70669,-3.22667 -3.22667,-1.46667 -5.13334,-4.54668 -5.13334,-7.77336 0,-5.86668 5.57334,-10.12002 13.64003,-10.12002 5.57334,0 10.12002,1.90667 14.2267,5.86668 3.22667,3.22667 4.84001,6.16001 7.18668,12.9067 h 5.13335 v -24.64006 h -5.13335 l -4.25334,5.28001 c -5.28001,-4.10667 -10.56003,-5.86668 -17.89338,-5.86668 -12.90669,0 -21.41338,8.50669 -21.41338,21.26672 0,5.72001 1.90667,10.56002 5.13335,13.49336 3.37334,3.08001 6.74668,4.54668 15.5467,6.60002 l 7.77335,1.76 c 11.58669,2.78668 15.69337,5.72002 15.69337,11.5867 0,6.89334 -6.01335,11.73336 -14.6667,11.73336 -12.32003,0 -21.12005,-7.92002 -24.64006,-22.58672 h -5.86668 v 27.72006 h 5.13335 l 5.13334,-6.01335 c 6.01335,4.84002 12.76003,7.18669 20.09338,7.18669 14.37337,0 23.90672,-8.94669 23.90672,-22.58672 z m 84.62678,-14.08003 c 0,-20.24005 -12.61336,-36.08009 -28.74673,-36.08009 -9.09336,0 -15.1067,3.81334 -20.24005,12.61336 v -10.41335 l -25.37339,1.61333 v 6.30669 h 5.28001 c 5.42668,0 6.30668,1.02666 6.30668,7.33335 v 70.54683 c 0,5.86668 -0.14667,6.89335 -9.53335,6.89335 h -2.05334 v 5.28001 h 38.13342 v -5.28001 h -2.05334 c -9.53335,0 -10.70669,-1.02667 -10.70669,-6.89335 v -27.1334 c 4.84001,8.50669 10.41336,11.88003 19.36005,11.88003 17.01337,0 29.62673,-15.69337 29.62673,-36.66675 z m -15.40003,-0.88001 c 0,18.92005 -6.01335,29.62674 -16.42671,29.62674 -10.41336,0 -17.30671,-10.85336 -17.30671,-27.72007 0,-18.1867 6.60002,-29.18673 17.74671,-29.18673 10.12002,0 15.98671,10.12002 15.98671,27.28006 z m 93.86654,-27.72006 v -5.28001 h -29.3334 v 5.28001 h 2.34667 c 5.57335,0 7.92002,1.61334 7.92002,5.42668 0,1.46667 -0.44,3.37334 -1.46667,5.86668 l -13.3467,33.14674 -16.13337,-37.69342 c -0.58667,-1.32 -0.88,-2.34667 -0.88,-3.08001 0,-2.64 1.76,-3.66667 6.74668,-3.66667 h 3.08001 v -5.28001 h -34.90675 v 5.28001 h 1.90667 c 4.69335,0 7.04002,2.05334 9.68002,7.92002 l 23.90673,54.12012 -2.49334,5.13335 c -5.42668,11.14669 -12.17336,18.92004 -16.86671,18.92004 -1.32,0 -2.34667,-0.58667 -2.34667,-1.46667 0,-1.02667 1.02667,-3.52001 1.02667,-5.13334 0,-3.81334 -3.22668,-6.60002 -7.48002,-6.60002 -5.13334,0 -8.80002,3.81334 -8.80002,9.09336 0,6.45334 5.72001,11.29336 13.3467,11.29336 7.77335,0 14.37336,-3.81335 20.24004,-11.73336 4.54668,-6.16002 7.33335,-12.0267 13.93337,-28.30674 l 16.72004,-41.36009 c 3.66667,-8.94669 5.86668,-11.88003 11.44003,-11.88003 z"
       id="text1"
       aria-label="refspy"
       transform="matrix(0.26458333,0,0,0.26458333,-0.1104429,0.53058612)" />
  </g>
</svg>
